<?xml version="1.0" encoding="UTF-8" standalone="no"?>
<!-- Created with Inkscape (http://www.inkscape.org/) -->

<svg
   width="48"
   height="48"
   viewBox="0 0 12.7 12.7"
   version="1.1"
   id="svg5"
   inkscape:version="1.1.1 (3bf5ae0d25, 2021-09-20)"
   sodipodi:docname="ethicallysourcedlogo.svg"
   xmlns:inkscape="http://www.inkscape.org/namespaces/inkscape"
   xmlns:sodipodi="http://sodipodi.sourceforge.net/DTD/sodipodi-0.dtd"
   xmlns:xlink="http://www.w3.org/1999/xlink"
   xmlns="http://www.w3.org/2000/svg"
   xmlns:svg="http://www.w3.org/2000/svg">
  <sodipodi:namedview
     id="namedview7"
     pagecolor="#ffffff"
     bordercolor="#999999"
     borderopacity="1"
     inkscape:pageshadow="0"
     inkscape:pageopacity="0"
     inkscape:pagecheckerboard="0"
     inkscape:document-units="mm"
     showgrid="false"
     inkscape:zoom="7.2466937"
     inkscape:cx="12.902436"
     inkscape:cy="33.739524"
     inkscape:window-width="1920"
     inkscape:window-height="1051"
     inkscape:window-x="-9"
     inkscape:window-y="-9"
     inkscape:window-maximized="1"
     inkscape:current-layer="g29986"
     showguides="true"
     inkscape:guide-bbox="true"
     inkscape:snap-nodes="false"
     units="px" />
  <defs
     id="defs2">
    <linearGradient
       inkscape:collect="always"
       id="linearGradient27648">
      <stop
         style="stop-color:#2b3717;stop-opacity:1"
         offset="0"
         id="stop27644" />
      <stop
         style="stop-color:#5a874f;stop-opacity:0"
         offset="1"
         id="stop27646" />
    </linearGradient>
    <linearGradient
       inkscape:collect="always"
       xlink:href="#linearGradient27648"
       id="linearGradient12695"
       gradientUnits="userSpaceOnUse"
       x1="71.358482"
       y1="202.17976"
       x2="144.24213"
       y2="216.367"
       gradientTransform="matrix(0.11414601,0,0,0.11414601,-18.196182,-43.425906)" />
    <linearGradient
       inkscape:collect="always"
       xlink:href="#linearGradient27648"
       id="linearGradient21798"
       gradientUnits="userSpaceOnUse"
       gradientTransform="matrix(-0.05809237,-0.09825776,0.09825776,-0.05809237,-16.493834,-5.4171503)"
       x1="71.358482"
       y1="202.17976"
       x2="144.24213"
       y2="216.367" />
    <linearGradient
       inkscape:collect="always"
       xlink:href="#linearGradient27648"
       id="linearGradient21802"
       gradientUnits="userSpaceOnUse"
       gradientTransform="matrix(-0.057073,0.09885335,-0.09885335,-0.057073,14.781608,-25.497648)"
       x1="71.358482"
       y1="202.17976"
       x2="144.24213"
       y2="216.367" />
  </defs>
  <g
     inkscape:label="Layer 1"
     inkscape:groupmode="layer"
     id="layer1">
    <g
       id="g8514" />
    <g
       id="g29986"
       transform="matrix(0.61657857,0,0,0.61657857,10.596108,22.660572)">
      <g
         id="g3087"
         inkscape:transform-center-x="0.0071072446"
         inkscape:transform-center-y="-1.7840935"
         transform="matrix(0.0395036,-2.9431976e-4,2.9431976e-4,0.0395036,-11.969293,-30.749739)"
         style="fill:#2b3717;fill-opacity:1;stroke:#000000;stroke-width:95.369">
        <g
           id="path3085"
           style="fill:#2b3717;fill-opacity:1">
          <path
             style="color:#000000;fill:#2b3717;fill-opacity:1;fill-rule:evenodd;stroke:none;stroke-linecap:square;stroke-linejoin:round;-inkscape-stroke:none"
             d="m 125.785,-69.53884 a 34.134799,34.134799 0 0 0 -22.61523,16.103515 L -56.3732,216.97678 a 34.134799,34.134799 0 0 0 29.07422,51.47266 l 313.95508,2.96289 a 34.134799,34.134799 0 0 0 30.03906,-50.91602 L 162.28305,-52.878684 A 34.134799,34.134799 0 0 0 125.785,-69.53884 Z"
             id="path3595" />
          <path
             style="color:#000000;fill:#2b3717;fill-opacity:1;fill-rule:evenodd;stroke:none;stroke-linecap:square;stroke-linejoin:round;-inkscape-stroke:none"
             d="m 129.2793,-117.82617 c -4.31345,0.16593 -8.64833,0.67747 -12.9668,1.55273 -22.696983,4.60039 -42.435363,18.65608 -54.207031,38.599612 a 47.68927,47.68927 0 0 0 -0.0059,0.0078 L -97.443359,192.74609 a 47.68927,47.68927 0 0 0 -0.0039,0.008 c -30.822481,52.26633 9.014465,122.79276 69.689454,123.37695 a 47.68927,47.68927 0 0 0 0.0098,0 l 313.955075,2.96289 a 47.68927,47.68927 0 0 0 0.01,0.002 c 60.67585,0.55975 101.83504,-69.20492 72.00195,-122.04297 a 47.68927,47.68927 0 0 0 -0.004,-0.008 L 203.80273,-76.330078 a 47.68927,47.68927 0 0 0 -0.006,-0.0098 C 188.62157,-103.19237 159.4734,-118.98768 129.2793,-117.82617 Z M 132.30859,-8.9863281 263.63086,223.50977 -3.3769531,220.98828 Z"
             id="path3597" />
        </g>
      </g>
      <path
         style="fill:url(#linearGradient12695);fill-opacity:1;stroke:none;stroke-width:0.0302011px;stroke-linecap:butt;stroke-linejoin:miter;stroke-opacity:1"
         d="m -6.5367083,-22.36226 1.516421,1.995301 -1.516421,2.115009 -5.7656337,-0.0426 2.7583151,-4.078531 3.0073186,0.01089"
         id="path9009"
         sodipodi:nodetypes="cccccc" />
      <path
         style="fill:url(#linearGradient21798);fill-opacity:1;stroke:none;stroke-width:0.0302011px;stroke-linecap:butt;stroke-linejoin:miter;stroke-opacity:1"
         d="m -4.2959424,-26.173649 0.9458128,-2.320818 2.59237047,0.228956 2.89761803,4.984798 -4.9146269,-0.29869 -1.5211744,-2.594246"
         id="path21796"
         sodipodi:nodetypes="cccccc" />
      <path
         style="fill:url(#linearGradient21802);fill-opacity:1;stroke:none;stroke-width:0.0302011px;stroke-linecap:butt;stroke-linejoin:miter;stroke-opacity:1"
         d="m -9.2897944,-25.932071 -2.4861836,0.315613 -1.073442,-2.370768 2.9197284,-4.971873 2.1529559,4.428036 -1.5130587,2.598992"
         id="path21800"
         sodipodi:nodetypes="cccccc" />
      <g
         id="path1244"
         inkscape:transform-center-x="0.00390876"
         inkscape:transform-center-y="-0.98167569"
         transform="matrix(0.02173633,-1.6194578e-4,1.6194578e-4,0.02173633,-9.5775706,-28.187749)"
         style="fill:#dab91d;fill-opacity:1">
        <path
           style="color:#000000;fill:#dab91d;fill-opacity:1;fill-rule:evenodd;stroke-linecap:square;stroke-linejoin:round;-inkscape-stroke:none"
           d="m 125.785,-69.53884 a 34.134799,34.134799 0 0 0 -22.61523,16.103515 L -56.3732,216.97678 a 34.134799,34.134799 0 0 0 29.07422,51.47266 l 313.95508,2.96289 a 34.134799,34.134799 0 0 0 30.03906,-50.91602 L 162.28305,-52.878684 A 34.134799,34.134799 0 0 0 125.785,-69.53884 Z"
           id="path1650" />
      </g>
      <path
         style="fill:#000000;fill-opacity:1;stroke:none;stroke-width:0.0257752px;stroke-linecap:butt;stroke-linejoin:miter;stroke-opacity:1"
         d="m -5.7670714,-27.496216 h -1.8400381 l 0.6210987,2.914859 h 0.6688706 z"
         id="path29538"
         sodipodi:nodetypes="ccccc" />
      <path
         style="fill:#000000;fill-opacity:1;fill-rule:evenodd;stroke:none;stroke-width:24.5254;stroke-linecap:square;stroke-linejoin:round;stroke-miterlimit:4;stroke-dasharray:none;stroke-opacity:1"
         id="path29849"
         sodipodi:type="arc"
         sodipodi:cx="-6.6098256"
         sodipodi:cy="-23.558533"
         sodipodi:rx="0.52132064"
         sodipodi:ry="0.52128834"
         sodipodi:start="0.69565333"
         sodipodi:end="0.69546135"
         sodipodi:open="true"
         sodipodi:arc-type="arc"
         d="m -6.2096416,-23.224446 a 0.52132064,0.52128834 0 0 1 -0.7342725,0.06609 0.52132064,0.52128834 0 0 1 -0.066128,-0.734224 0.52132064,0.52128834 0 0 1 0.7342661,-0.06616 0.52132064,0.52128834 0 0 1 0.066198,0.734217" />
    </g>
    <g
       id="g30010"
       transform="matrix(0.61657857,0,0,0.61657857,74.56321,119.34144)" />
  </g>
</svg>
